<svg version="1.1" viewBox="0.0 0.0 256.0 246.66666666666666" fill="none" stroke="none" stroke-linecap="square" stroke-miterlimit="10" xmlns:xlink="http://www.w3.org/1999/xlink" xmlns="http://www.w3.org/2000/svg"><clipPath id="p.0"><path d="m0 0l256.0 0l0 246.66667l-256.0 0l0 -246.66667z" clip-rule="nonzero"/></clipPath><g clip-path="url(#p.0)"><path fill="#000000" fill-opacity="0.0" d="m0 0l256.0 0l0 246.66667l-256.0 0z" fill-rule="evenodd"/><path fill="#000000" fill-opacity="0.0" d="m6.6666665 123.338585l0 0c0 -62.221184 54.325134 -112.66142 121.338585 -112.66142l0 0c67.01344 0 121.33858 50.440235 121.33858 112.66142l0 0c0 62.221184 -54.325134 112.661415 -121.33858 112.661415l0 0c-67.01344 0 -121.338585 -50.44023 -121.338585 -112.661415z" fill-rule="evenodd"/><path stroke="#ff0000" stroke-width="8.0" stroke-linejoin="round" stroke-linecap="butt" d="m6.6666665 123.338585l0 0c0 -62.221184 54.325134 -112.66142 121.338585 -112.66142l0 0c67.01344 0 121.33858 50.440235 121.33858 112.66142l0 0c0 62.221184 -54.325134 112.661415 -121.33858 112.661415l0 0c-67.01344 0 -121.338585 -50.44023 -121.338585 -112.661415z" fill-rule="evenodd"/><path fill="#ff0000" d="m14.005249 123.338585l0 0c0 -58.542183 51.039536 -106.0 114.0 -106.0l0 0c62.960464 0 114.0 47.457817 114.0 106.0l0 0c0 58.542183 -51.039536 105.99999 -114.0 105.99999l0 0c-62.960464 0 -114.0 -47.45781 -114.0 -105.99999z" fill-rule="evenodd"/><path stroke="#ffffff" stroke-width="1.0" stroke-linejoin="round" stroke-linecap="butt" d="m14.005249 123.338585l0 0c0 -58.542183 51.039536 -106.0 114.0 -106.0l0 0c62.960464 0 114.0 47.457817 114.0 106.0l0 0c0 58.542183 -51.039536 105.99999 -114.0 105.99999l0 0c-62.960464 0 -114.0 -47.45781 -114.0 -105.99999z" fill-rule="evenodd"/><path fill="#ff0000" d="m78.2049 33.83859l99.6007 0l0 179.19998l-99.6007 0l0 -179.19998z" fill-rule="nonzero"/><path fill="#000000" fill-opacity="0.0" d="m78.2049 42.01579l99.6007 0l0 171.71277l-99.6007 0l0 -171.71277z" fill-rule="nonzero"/><path fill="#ffffff" d="m77.98615 177.19858l41.046875 -106.89063l15.250008 0l43.734375 106.89063l-16.109375 0l-12.46875 -32.375l-44.687508 0l-11.75 32.375l-15.015625 0zm30.84375 -43.890625l36.234383 0l-11.15625 -29.609383q-5.09375 -13.484375 -7.5781326 -22.15625q-2.046875 10.28125 -5.765625 20.40625l-11.734375 31.359383z" fill-rule="nonzero"/><path fill="#010000" fill-opacity="0.0" d="m177.8056 42.01579l0 0l0 171.71277l0 0l0 -171.71277z" fill-rule="nonzero"/></g></svg>