<?xml version="1.0" encoding="utf-8"?>
<!-- Generator: Adobe Illustrator 16.0.0, SVG Export Plug-In . SVG Version: 6.00 Build 0)  -->
<!DOCTYPE svg PUBLIC "-//W3C//DTD SVG 1.1//EN" "http://www.w3.org/Graphics/SVG/1.1/DTD/svg11.dtd">
<svg version="1.1" id="Layer_1" xmlns="http://www.w3.org/2000/svg" xmlns:xlink="http://www.w3.org/1999/xlink" x="0px" y="0px"
	 width="231.379px" height="217.461px" viewBox="0 0 231.379 217.461" enable-background="new 0 0 231.379 217.461"
	 xml:space="preserve">
<g>
	<polyline fill="#EC2130" points="231.379,217.461 0,217.461 0,0 231.379,0 231.379,217.461 	"/>
	<path fill="#FFFFFF" d="M27.758,166.354c0,5.109-0.103,8.762,5.303,11.59v0.273H15.008v-0.273c5.406-2.828,5.406-6.479,5.406-11.59
		v-36.417c0-5.11,0-8.763-5.304-11.499v-0.274h14.891v0.091c0.408,1.097,0.815,1.553,1.53,2.282l1.428,1.825l37.329,42.166v-34.591
		c0-5.11,0.102-8.763-5.303-11.499v-0.274h17.949v0.274c-5.303,2.736-5.303,6.389-5.303,11.499v51.202
		c-7.242-2.191-10.402-5.203-14.891-10.404L27.758,131.03V166.354L27.758,166.354z"/>
	<path fill="#FFFFFF" d="M116.247,171.646c6.937,0.364,12.953-1.734,18.053-5.567h0.306l-5.304,12.139h-41.92v-0.273
		c5.201-1.644,4.59-8.396,4.59-12.504v-34.41c0-4.197,0.611-10.86-4.59-12.594v-0.274h19.48v0.274
		c-5.201,1.732-4.488,8.486-4.488,12.594v39.794L116.247,171.646L116.247,171.646z"/>
	<path fill="#FFFFFF" d="M158.215,180.955c-9.281-6.023-10.199-5.386-13.564-14.786l-12.034-33.678
		c-1.837-5.02-3.365-10.952-8.466-14.055v-0.274h14.892c-0.408,2.008,0.61,4.837,1.224,6.571l15.196,42.438l11.935-34.682
		c1.938-5.567,3.977-11.5-1.633-14.055v-0.274h14.381c-0.611,2.282,0.102,5.202,1.528,9.218l14.179,39.521l11.524-33.404
		c1.836-5.202,5.201-12.595-2.754-15.059v-0.274h15.707l-21.521,62.793c-9.384-5.75-10.097-5.294-13.463-14.694l-11.22-31.396
		L158.215,180.955L158.215,180.955z"/>
	<path fill="#FFFFFF" d="M45.892,90.123c6.936,0.364,12.953-1.73,18.052-5.559h0.307l-5.303,12.119h-41.92V96.41
		c5.202-1.64,4.589-8.383,4.589-12.484V49.574c0-4.191,0.613-10.845-4.589-12.575v-0.272h19.48v0.272
		c-5.202,1.73-4.487,8.475-4.487,12.575v39.729L45.892,90.123L45.892,90.123z"/>
	<path fill="#FFFFFF" d="M138.445,47.296h-0.307c-4.182-4.19-11.934-5.468-18.154-5.468c-15.912,0-28.048,9.294-28.048,23.965
		s13.055,25.787,29.169,25.787c4.691,0,9.588-0.546,14.179-1.729V76.729c0-4.191-0.103-8.657-4.691-10.298v-0.272h15.604v0.272
		c-0.51,1.094-0.51,2.552-0.51,3.919v20.958c0,1.366-0.103,2.824,0.51,4.101c-8.158,1.366-16.113,2.733-24.375,2.733
		c-26.111,0-41.512-12.758-41.512-31.073c0-19.59,17.441-31.801,42.124-31.801c5.405,0,10.709,0.546,16.014,1.549v10.479H138.445z"
		/>
	<path fill="#FFFFFF" d="M212.413,48.024c-5.608-3.189-12.138-5.194-18.867-5.194c-14.075,0-23.866,9.204-23.866,22.416
		c0,13.396,10.198,25.333,25.905,25.333c7.649,0,15.299-2.461,21.726-5.741h0.307l-5.203,10.57
		c-4.793,2.005-10.096,2.733-15.4,2.733c-24.07,0-38.961-12.028-38.961-31.528c0-18.862,14.891-31.346,35.799-31.346
		c6.224,0,12.545,1.003,18.563,2.277v10.479H212.413z"/>
	<path fill="#FFFFFF" d="M60.426,71.348c3.982,0.233,7.438-1.112,10.365-3.572h0.176l-3.045,7.789h-24.07v-0.176
		c2.986-1.055,2.635-5.389,2.635-8.023V45.286c0-2.693,0.352-6.969-2.635-8.082v-0.175h11.186v0.175
		c-2.987,1.113-2.577,5.447-2.577,8.082V70.82L60.426,71.348L60.426,71.348z"/>
</g>
</svg>
